<svg width="28" height="28" viewBox="0 0 28 28" fill="none" xmlns="http://www.w3.org/2000/svg">
<path fill-rule="evenodd" clip-rule="evenodd" d="M10.4076 8.50834C10.6264 8.43102 10.8669 8.44375 11.0763 8.54373C11.2857 8.64371 11.4467 8.82276 11.5241 9.0415C11.705 9.55371 12.0403 9.99722 12.4838 10.3109C12.9273 10.6246 13.4572 10.7931 14.0004 10.7931C14.5436 10.7931 15.0734 10.6246 15.5169 10.3109C15.9604 9.99722 16.2957 9.55371 16.4766 9.0415C16.5135 8.93141 16.572 8.82977 16.6486 8.7425C16.7252 8.65523 16.8184 8.58407 16.9227 8.53318C17.0271 8.48229 17.1405 8.45268 17.2565 8.44607C17.3724 8.43947 17.4885 8.456 17.5979 8.49471C17.7074 8.53342 17.8081 8.59353 17.8941 8.67154C17.9801 8.74955 18.0497 8.84389 18.0989 8.94908C18.1481 9.05426 18.1758 9.16819 18.1805 9.2842C18.1852 9.40022 18.1668 9.51602 18.1263 9.62484C17.8246 10.4781 17.2659 11.2168 16.527 11.7393C15.7881 12.2618 14.9054 12.5424 14.0004 12.5424C13.0954 12.5424 12.2127 12.2618 11.4738 11.7393C10.7349 11.2168 10.1761 10.4781 9.87446 9.62484C9.79714 9.40608 9.80987 9.16556 9.90985 8.95619C10.0098 8.74681 10.1889 8.58572 10.4076 8.50834ZM14.421 6.4165H13.5786C11.6828 6.4165 10.4205 6.42 9.46379 6.53784C8.55613 6.64984 8.13729 6.84467 7.84329 7.0885C7.54929 7.3335 7.28096 7.708 7.00329 8.5795C6.71162 9.49767 6.47596 10.7378 6.12596 12.6022C5.63596 15.2155 5.30696 16.99 5.24862 18.327C5.19262 19.6162 5.40846 20.1645 5.71179 20.5297C6.01512 20.8948 6.51329 21.2075 7.79079 21.3895C9.11496 21.5785 10.921 21.5832 13.5798 21.5832H14.4198C17.0798 21.5832 18.8846 21.5785 20.2088 21.3895C21.4863 21.2075 21.9845 20.8948 22.2878 20.5297C22.5911 20.1633 22.807 19.6162 22.751 18.327C22.6926 16.99 22.3636 15.2155 21.8736 12.6022C21.5236 10.7378 21.2891 9.49884 20.9963 8.5795C20.7186 7.708 20.4503 7.33234 20.1563 7.0885C19.8623 6.84467 19.4446 6.64984 18.5358 6.53784C17.5791 6.42 16.3168 6.4165 14.421 6.4165ZM6.72562 5.74217C5.43062 6.81784 5.08879 8.639 4.40629 12.2802C3.44612 17.4007 2.96546 19.9603 4.36546 21.6473C5.76546 23.3343 8.36946 23.3332 13.5798 23.3332H14.4198C19.6301 23.3332 22.2353 23.3332 23.6353 21.6473C25.0353 19.9615 24.5546 17.4007 23.5945 12.279C22.912 8.639 22.5701 6.81784 21.274 5.74217C19.979 4.6665 18.1251 4.6665 14.421 4.6665H13.5786C9.87446 4.6665 8.02179 4.6665 6.72562 5.74217Z" fill="black"/>
</svg>
