<svg width="163" height="24" viewBox="0 0 163 24" fill="none" xmlns="http://www.w3.org/2000/svg">
<path d="M0.570312 18V1.03125H3.61719V15.4219H11.1172V18H0.570312ZM27.4156 9.51562C27.4156 15 24.0875 18.2344 19.6344 18.2344C15.1812 18.2344 11.8531 14.9766 11.8531 9.51562C11.8531 4.03125 15.1812 0.796875 19.6344 0.796875C24.0875 0.796875 27.4156 4.03125 27.4156 9.51562ZM24.3453 9.51562C24.3453 5.64844 22.4 3.53906 19.6344 3.53906C16.8687 3.53906 14.9234 5.64844 14.9234 9.51562C14.9234 13.3828 16.8687 15.4922 19.6344 15.4922C22.4 15.4922 24.3453 13.3828 24.3453 9.51562ZM40.9016 6.44531C40.3625 4.64062 38.9562 3.53906 36.8937 3.53906C34.1516 3.53906 32.1828 5.67188 32.1828 9.49219C32.1828 13.3594 34.1281 15.4922 36.9641 15.4922C39.5187 15.4922 41.1594 13.9453 41.2062 11.5312H37.2687V9.11719H44.1594V11.1562C44.1594 15.5156 41.1594 18.2344 36.9641 18.2344C32.2766 18.2344 29.1125 14.9062 29.1125 9.51562C29.1125 4.07812 32.4172 0.796875 36.8703 0.796875C40.6203 0.796875 43.5031 3.11719 44.0187 6.44531H40.9016ZM61.4656 9.51562C61.4656 15 58.1375 18.2344 53.6844 18.2344C49.2313 18.2344 45.9031 14.9766 45.9031 9.51562C45.9031 4.03125 49.2313 0.796875 53.6844 0.796875C58.1375 0.796875 61.4656 4.03125 61.4656 9.51562ZM58.3953 9.51562C58.3953 5.64844 56.45 3.53906 53.6844 3.53906C50.9188 3.53906 48.9734 5.64844 48.9734 9.51562C48.9734 13.3828 50.9188 15.4922 53.6844 15.4922C56.45 15.4922 58.3953 13.3828 58.3953 9.51562ZM74.4453 18H68.6797V1.03125H74.5391C79.6016 1.03125 82.6719 4.21875 82.6719 9.49219C82.6719 14.7891 79.6016 18 74.4453 18ZM71.7266 15.3516H74.2812C77.8203 15.3516 79.625 13.4062 79.625 9.49219C79.625 5.60156 77.8203 3.67969 74.375 3.67969H71.7266V15.3516ZM90.275 18.2578C86.4313 18.2578 84.0875 15.7031 84.0875 11.7188C84.0875 7.78125 86.4781 5.10938 90.1109 5.10938C93.2281 5.10938 95.9234 7.05469 95.9234 11.5312V12.4688H87.0406C87.0758 14.6367 88.3531 15.9141 90.2984 15.9141C91.6109 15.9141 92.5016 15.3516 92.8766 14.6016H95.8063C95.2672 16.8047 93.2281 18.2578 90.275 18.2578ZM87.0641 10.4297H93.0641C93.0406 8.69531 91.8922 7.42969 90.1578 7.42969C88.3531 7.42969 87.1578 8.80078 87.0641 10.4297ZM104.863 8.90625C104.675 7.94531 103.878 7.33594 102.613 7.33594C101.323 7.33594 100.386 7.96875 100.409 8.83594C100.386 9.49219 100.925 9.98438 102.214 10.2891L104.37 10.7344C106.784 11.2734 107.933 12.375 107.956 14.2031C107.933 16.5938 105.847 18.2578 102.519 18.2578C99.2844 18.2578 97.3625 16.8047 97.0578 14.3672H100.105C100.292 15.4453 101.136 15.9844 102.519 15.9844C103.948 15.9844 104.909 15.3984 104.909 14.4609C104.909 13.7344 104.323 13.2656 103.058 12.9844L101.019 12.5391C98.6516 12.0703 97.4328 10.8281 97.4328 9C97.4328 6.65625 99.4484 5.10938 102.566 5.10938C105.613 5.10938 107.488 6.58594 107.698 8.90625H104.863ZM109.63 18V5.27344H112.63V18H109.63ZM111.153 3.46875C110.216 3.46875 109.419 2.74219 109.419 1.82812C109.419 0.9375 110.216 0.210938 111.153 0.210938C112.114 0.210938 112.887 0.9375 112.887 1.82812C112.887 2.74219 112.114 3.46875 111.153 3.46875ZM120.444 23.0391C117.069 23.0391 114.936 21.5391 114.725 19.1484H117.702C117.912 20.25 118.967 20.7891 120.491 20.7891C122.272 20.7891 123.444 20.0156 123.444 18.1406V15.7031H123.303C122.834 16.6406 121.827 17.8125 119.623 17.8125C116.694 17.8125 114.373 15.6797 114.373 11.5312C114.373 7.33594 116.694 5.10938 119.647 5.10938C121.897 5.10938 122.834 6.44531 123.303 7.35938H123.444V5.27344H126.397V18.2109C126.397 21.4688 123.889 23.0391 120.444 23.0391ZM120.444 15.4688C122.366 15.4688 123.467 14.0156 123.467 11.5781C123.467 9.16406 122.389 7.54688 120.444 7.54688C118.452 7.54688 117.42 9.25781 117.42 11.5781C117.42 13.9219 118.475 15.4688 120.444 15.4688ZM131.656 10.5469V18H128.656V5.27344H131.516V7.42969H131.68C132.266 6 133.555 5.10938 135.453 5.10938C138.102 5.10938 139.836 6.84375 139.812 9.89062V18H136.836V10.3594C136.836 8.64844 135.922 7.64062 134.352 7.64062C132.758 7.64062 131.656 8.69531 131.656 10.5469ZM147.72 18.2578C143.877 18.2578 141.533 15.7031 141.533 11.7188C141.533 7.78125 143.923 5.10938 147.556 5.10938C150.673 5.10938 153.369 7.05469 153.369 11.5312V12.4688H144.486C144.521 14.6367 145.798 15.9141 147.744 15.9141C149.056 15.9141 149.947 15.3516 150.322 14.6016H153.252C152.712 16.8047 150.673 18.2578 147.72 18.2578ZM144.509 10.4297H150.509C150.486 8.69531 149.337 7.42969 147.603 7.42969C145.798 7.42969 144.603 8.80078 144.509 10.4297ZM155.089 18V5.27344H157.995V7.38281H158.136C158.581 5.92969 159.823 5.08594 161.277 5.08594C161.605 5.08594 162.073 5.10938 162.355 5.15625V7.92188C162.097 7.82812 161.464 7.73438 160.972 7.73438C159.308 7.73438 158.089 8.88281 158.089 10.5V18H155.089Z" fill="black"/>
</svg>
